# xmcd
#
# Track frame offsets:
#  150
#  22262
#  46962
#  69012
#
# Disc length: 1134 seconds
#
# Revision: 0
# Processed by: cddbd v1.4PL0 Copyright (c) Steve Scherf et al.
# Submitted via: AltoMP3_Maker 3.0
#
DISCID=2c046c04
DTITLE=Dad Jeans - Across these mountains
DYEAR=1900
DGENRE=
TTITLE0=Across these mountains
TTITLE1=Voices on Film
TTITLE2=A.T.M. (instrumental)
TTITLE3=Broken Shadows (Live Mix)
EXTD=
EXTT0=
EXTT1=
EXTT2=
EXTT3=
PLAYORDER=
